FFmpeg version SVN-r25716, Copyright (c) 2000-2010 the FFmpeg developers  built on Nov 10 2010 12:23:18 with gcc 4.1.2 20080704 (Red Hat 4.1.2-48)  configuration: --enable-libmp3lame --enable-shared --disable-mmx --arch=x86_64  libavutil     50.33. 0 / 50.33. 0  libavcore      0.12. 1 /  0.12. 1  libavcodec    52.94. 4 / 52.94. 4  libavformat   52.84. 0 / 52.84. 0  libavdevice   52. 2. 2 / 52. 2. 2  libavfilter    1.59. 0 /  1.59. 0  libswscale     0.12. 0 /  0.12. 0Input #0, mov,mp4,m4a,3gp,3g2,mj2, from '/RAID10/data/converted_video_files/26320.mov':  Metadata:    major_brand     : qt      minor_version   : 537199360    compatible_brands: qt      encoder         : CoreMediaAuthoring 700, CoreMedia 484.20, i386    encoder-eng     : CoreMediaAuthoring 700, CoreMedia 484.20, i386  Duration: 00:00:41.70, start: -3.375000, bitrate: 1925 kb/s    Stream #0.0(eng): Video: h264, yuv420p, 512x512, 1922 kb/s, 24 fps, 24 tbr, 24 tbn, 48 tbc[buffer @ 0xe54cb0] w:512 h:512 pixfmt:yuv420pOutput #0, flv, to '/RAID10/data/converted_video_files/26320.flv':  Metadata:    encoder         : Lavf52.84.0    Stream #0.0(eng): Video: flv, yuv420p, 512x512, q=2-31, 600 kb/s, 1k tbn, 24 tbcStream mapping:  Stream #0.0 -> #0.0Press [q] to stop encodingframe=   35 fps=  0 q=17.0 size=     348kB time=1.46 bitrate=1957.6kbits/s    frame=   70 fps= 67 q=19.7 size=     465kB time=2.92 bitrate=1304.8kbits/s    frame=  103 fps= 67 q=19.8 size=     573kB time=4.29 bitrate=1094.1kbits/s    frame=  127 fps= 62 q=18.5 size=     641kB time=5.29 bitrate= 992.6kbits/s    frame=  161 fps= 63 q=19.7 size=     748kB time=6.71 bitrate= 913.8kbits/s    frame=  203 fps= 66 q=20.0 size=     868kB time=8.46 bitrate= 840.5kbits/s    frame=  231 fps= 65 q=19.4 size=     966kB time=9.62 bitrate= 821.9kbits/s    frame=  271 fps= 66 q=20.8 size=    1078kB time=11.29 bitrate= 782.3kbits/s    frame=  295 fps= 64 q=22.1 size=    1153kB time=12.29 bitrate= 768.7kbits/s    frame=  318 fps= 62 q=21.0 size=    1229kB time=13.25 bitrate= 759.8kbits/s    frame=  356 fps= 63 q=20.1 size=    1339kB time=14.83 bitrate= 739.4kbits/s    frame=  381 fps= 62 q=20.5 size=    1411kB time=15.88 bitrate= 728.1kbits/s    frame=  428 fps= 65 q=27.4 size=    1555kB time=17.83 bitrate= 714.3kbits/s    frame=  484 fps= 68 q=25.7 size=    1715kB time=20.17 bitrate= 696.8kbits/s    frame=  536 fps= 70 q=27.5 size=    1863kB time=22.33 bitrate= 683.5kbits/s    frame=  582 fps= 72 q=27.1 size=    2004kB time=24.25 bitrate= 677.1kbits/s    frame=  633 fps= 73 q=21.3 size=    2166kB time=26.38 bitrate= 672.6kbits/s    frame=  671 fps= 73 q=25.6 size=    2274kB time=27.96 bitrate= 666.4kbits/s    frame=  709 fps= 73 q=24.6 size=    2387kB time=29.54 bitrate= 662.0kbits/s    frame=  742 fps= 73 q=26.9 size=    2489kB time=30.92 bitrate= 659.6kbits/s    frame=  795 fps= 74 q=24.7 size=    2638kB time=33.12 bitrate= 652.4kbits/s    frame=  834 fps= 75 q=26.0 size=    2754kB time=34.75 bitrate= 649.1kbits/s    frame=  879 fps= 75 q=26.6 size=    2896kB time=36.62 bitrate= 647.8kbits/s    frame=  926 fps= 76 q=25.3 size=    3038kB time=38.58 bitrate= 645.0kbits/s    frame=  974 fps= 77 q=24.4 size=    3180kB time=40.58 bitrate= 641.9kbits/s    frame= 1001 fps= 77 q=25.5 Lsize=    3259kB time=41.71 bitrate= 640.2kbits/s    video:3243kB audio:0kB global headers:0kB muxing overhead 0.488545%